# xmcd CD database file
#
# Track frame offsets:
#	150
#	18511
#	32998
#	43444
#	56920
#	72044
#	91856
#	106317
#	121637
#	131821
#	147100
#	159107
#	170346
#	180402
#	193613
#
# Disc length: 2775 seconds
#
# Revision: 0
# Processed by: cddbd v1.5.2PL0 Copyright (c) Steve Scherf et al.
# Submitted via: CDex 1.51
#
DISCID=c80ad50f
DTITLE=Jazz-Hip Trio - Starlight Starbright 
DYEAR=2006
DGENRE=Jazz
TTITLE0=Sheherajazz
TTITLE1=Hyoperespace
TTITLE2=Spell Of Three 
TTITLE3=In Quarto 
TTITLE4=Rue Du Chemin Vert [ Green Street Way ] 
TTITLE5=Three Hearts,Three Lions  
TTITLE6=Starlight Starbright 
TTITLE7=Parapluies De Cherbourg  
TTITLE8=It's Not Unusual 
TTITLE9=Poinciana 
TTITLE10=Poulet Au Curry 
TTITLE11=In A Season Of Change 
TTITLE12=When The Blues Wil Leave (Ornette Coleman) 
TTITLE13=Entre Cinq Et Sept 
TTITLE14=My Favorite Things 
EXTD=YEAR: 2006
EXTT0=
EXTT1=
EXTT2=
EXTT3=
EXTT4=
EXTT5=
EXTT6=
EXTT7=
EXTT8=
EXTT9=
EXTT10=
EXTT11=
EXTT12=
EXTT13=
EXTT14=
PLAYORDER=
